<svg id="Layer_1" data-name="Layer 1" xmlns="http://www.w3.org/2000/svg" viewBox="0 0 128 128"><defs><style>.cls-1{fill:#fff;}.cls-2{fill:#257972;}</style></defs><rect class="cls-1" width="128" height="128" rx="64"/><path class="cls-2" d="M69.53,95.74v7.14c-3.52,0-15.74,1-24.89-11.77a11.25,11.25,0,0,0-8.18-3.86H23.76v-44H49.24v7.17H32.57v11H47.35v7H32.57V80.08c3.66,0,11.82,0,16.67,4.84a12.16,12.16,0,0,1,2.25,3.13C55.89,96.71,65.91,95.74,69.53,95.74Z"/><polygon class="cls-2" points="104.24 43.35 104.24 87.25 95.43 87.25 95.43 58.7 83.67 87.25 77 87.25 65.18 58.7 65.18 87.25 56.37 87.25 56.37 43.35 66.37 43.35 80.34 75.99 94.3 43.35 104.24 43.35"/></svg>