<svg id="Layer_1" data-name="Layer 1" xmlns="http://www.w3.org/2000/svg" viewBox="0 0 128 128"><defs><style>.cls-1{fill:#257972;}.cls-2{fill:#fff;}</style></defs><rect class="cls-1" width="128" height="128" rx="64"/><path class="cls-2" d="M69.56,95.83V103c-3.54,0-15.82,1-25-11.82a11.27,11.27,0,0,0-8.22-3.88H23.59V43.16H49.17v7.2H32.44v11H47.28v7H32.44V80.11c3.67,0,11.86,0,16.73,4.87a12.05,12.05,0,0,1,2.27,3.13C55.85,96.81,65.92,95.83,69.56,95.83Z"/><polygon class="cls-2" points="104.41 43.22 104.41 87.31 95.56 87.31 95.56 58.63 83.75 87.31 77.06 87.31 65.18 58.63 65.18 87.31 56.34 87.31 56.34 43.22 66.38 43.22 80.41 76 94.43 43.22 104.41 43.22"/></svg>